<?xml version="1.0" encoding="utf-8"?><!DOCTYPE svg PUBLIC "-//W3C//DTD SVG 1.1//EN" "http://www.w3.org/Graphics/SVG/1.1/DTD/svg11.dtd"><svg version="1.1" id="FH_JOANNEUM_Logo" xmlns="http://www.w3.org/2000/svg" width="210" height="49" viewBox="0 0 210 49"><title>FH JOANNEUM Logo</title><polygon fill="#900" points="4.893,5.734 52.49,5.734 52.49,44.215 4.893,44.215" stroke="#ad163e" stroke-width="0.4298" /><polygon fill="#fff" points="16.174,33.654 18.606,33.654 18.606,25.867 24.912,25.867 24.912,23.74 18.606,23.74  18.606,18.763 25.215,18.763 25.215,16.598 16.174,16.598" /><polygon fill="#fff" points="28.634,33.654 31.065,33.654 31.065,25.867 39.233,25.867 39.233,33.654 41.664,33.654  41.664,16.598 39.233,16.598 39.233,23.74 31.065,23.74 31.065,16.598 28.634,16.598" /><polygon fill="#900" points="56.707,5.734 204.893,5.734 204.893,44.215 56.707,44.215" stroke="#ad163e" stroke-width="0.4298" /><path fill="#fff" d="M64.304,33.654c0.494,0.188,1.178,0.266,1.976,0.266c3.685,0,4.786-2.279,4.786-4.672v-12.65 h-2.469V28.45c0,2.089-0.57,3.343-2.773,3.343c-0.456,0-0.987-0.076-1.52-0.268V33.654L64.304,33.654z" /><path fill="#fff" d="M82.727,31.793v2.127c0,0,0,0,0.038,0c5.166,0,8.167-3.607,8.167-8.813 c0-5.051-3.001-8.774-8.167-8.774c-0.038,0-0.038,0-0.038,0v2.127c0,0,0,0,0.038,0c3.761-0.038,5.584,3.191,5.584,6.647 c0,3.418-1.672,6.687-5.584,6.687C82.727,31.793,82.727,31.793,82.727,31.793L82.727,31.793z M82.727,18.459v-2.127 c-5.166,0-8.167,3.723-8.167,8.773c0,5.205,2.963,8.813,8.167,8.813v-2.127c-3.951,0-5.583-3.269-5.583-6.687 C77.144,21.65,78.966,18.421,82.727,18.459L82.727,18.459z" /><path fill="#fff" d="M100.961,27.35v2.012h4.178l1.71,4.293h2.658l-7.179-17.056h-1.368v2.318l3.381,8.434H100.961z M100.961,18.916v-2.318h-1.178l-7.255,17.056h2.583l1.709-4.293h4.141V27.35h-3.343L100.961,18.916L100.961,18.916z" /><polygon fill="#fff" points="111.977,33.654 114.409,33.654 114.409,19.637 114.447,19.637 122.158,33.654  125.271,33.654 125.271,16.598 122.842,16.598 122.842,30.313 122.803,30.313 115.281,16.598 111.977,16.598" /><polygon fill="#fff" points="129.564,33.654 132.034,33.654 132.034,19.637 132.072,19.637 139.783,33.654  142.898,33.654 142.898,16.598 140.467,16.598 140.467,30.313 140.43,30.313 132.908,16.598 129.564,16.598" /><polygon fill="#fff" points="147.343,33.654 156.877,33.654 156.877,31.489 149.773,31.489 149.773,25.867 156.23,25.867  156.23,23.74 149.773,23.74 149.773,18.763 156.877,18.763 156.877,16.598 147.343,16.598" /><path fill="#fff" d="M174.01,16.598h-2.469v9.687c0,3.267-1.025,5.508-4.143,5.508c-3.151,0-4.178-2.241-4.178-5.508 v-9.687h-2.433v9.991c0,4.786,2.396,7.331,6.61,7.331c4.179,0,6.609-2.545,6.609-7.331v-9.991H174.01z" /><polygon fill="#fff" points="178.379,33.654 180.809,33.654 180.809,18.916 180.885,18.916 186.507,33.654  188.898,33.654 194.523,18.916 194.6,18.916 194.6,33.654 197.029,33.654 197.029,16.598 193.002,16.598 187.762,30.768  182.404,16.598 178.379,16.598" /></svg>